<svg width="951" height="851" viewBox="0 0 951 851" fill="none" xmlns="http://www.w3.org/2000/svg">
<path d="M49.0798 559.612C90.6346 528.601 116.085 512.367 165.58 485.613L132.08 461.113C147.746 449.344 155.344 442.232 180.58 434.613C160.665 424.709 147.107 423.084 123.58 419.113C172.788 376.852 164.959 349.321 371.58 324.113C408.032 362.36 411.746 390.246 520.58 400.613C486.509 363.207 488.832 357.281 483.58 340.113C510.691 361.484 524.17 378.252 557.58 382.113C552.662 360.144 548.063 338.306 557.58 324.612C567.096 310.918 759.475 350.802 804.08 419.613C773.74 418.75 774.664 420.637 769.58 423.113C791.923 444.532 805.392 455.996 823.08 480.113C804.648 473.881 794.457 475.761 786.08 480.113C821.194 508.427 841.525 522.57 873.58 559.112C944.653 462.861 929.237 435.969 929.08 374.613C908.905 394.549 899.997 391.486 883.08 392.113C910.376 330.018 899.674 279.917 886.08 221.613C831.601 266.936 813.909 253.005 803.08 249.613C814.202 168.757 891.58 118.112 948.08 114.113C980.304 111.831 716.996 -15.6822 483.58 1.61198C307.744 14.6399 148.872 174.842 146.08 168.613C139.58 154.113 173.801 106.849 178.08 91.6125C182.358 76.3757 51.7984 153.503 45.5798 291.113L1.57976 266.113C-4.40867 380.681 5.62228 444.943 49.0798 559.612Z" fill="black"/>
<path d="M256.5 296.925C73.2239 371.466 49.5 446.926 49.5 535.925C28.5 494.426 17 401.425 24.5 326.925L43.5 344.925L17 293.925L56.5 328.425C71.1205 243.237 74.0474 193.167 141 136.925C137.353 164.987 130.312 177.741 143 213.925C453 -82.5745 775 40.4255 894 104.925C515 9.42546 371 116.425 283.5 185.425C350.615 179.767 382.422 166.615 475.5 202.425C217.5 222.925 177 286.925 150.5 306.425C186.316 298.285 204.49 292.207 256.5 296.925Z" fill="#D9D9D9"/>
<path d="M880.5 240C870.5 266.5 842.5 273.5 814 260.5C841.629 260.355 856.234 256.077 880.5 240Z" fill="#D9D9D9"/>
<path d="M924.411 385.456C915.564 408.011 900.43 411.889 887.911 398.083C901.875 400.222 909.859 397.647 924.411 385.456Z" fill="#D9D9D9"/>
<path fill-rule="evenodd" clip-rule="evenodd" d="M60.9995 604.729C204.126 570.469 400.054 589.564 425.054 625.064H501.054C543.75 571.632 861.629 599.429 859.554 608.564C859.554 608.564 863.946 632.943 859.554 648.564C856.64 659.38 845.229 660.033 842.554 669.564C809.441 787.568 807 803.5 778.554 829.064C744.5 855 617 858.5 582.554 834.564C531.5 799.087 521.713 746.839 501.054 682.064C481.08 671.582 462.442 663.018 431.554 682.064C388.054 810.064 375.086 812.886 356.499 829.064C328.999 853 186.216 851.279 158.499 829.064C116 795 105.085 734.894 87.4995 670C83.4996 657.931 65.6537 658.072 60.9995 643.729C57.3889 626.734 59.2931 619.125 60.9995 604.729ZM791.352 640.599C758.5 612 591.501 607 557.852 640.599C529.91 668.5 545.5 757.5 594.852 806.599C627.852 835.599 721 834 762.852 806.599C797.293 784.05 817.852 661.099 791.352 640.599ZM372.572 637.362C338.924 603.763 171.924 608.763 139.072 637.362C112.572 657.862 133.131 780.813 167.572 803.362C209.424 830.762 302.572 832.362 335.572 803.362C384.923 754.263 400.513 665.263 372.572 637.362Z" fill="black"/>
</svg>
