<svg width="951" height="851" viewBox="0 0 951 851" fill="none" xmlns="http://www.w3.org/2000/svg">
<path d="M49.0798 559.612C90.6346 528.601 116.085 512.367 165.58 485.613L132.08 461.113C147.746 449.344 155.344 442.232 180.58 434.613C160.665 424.709 147.107 423.084 123.58 419.113C172.788 376.852 164.959 349.321 371.58 324.113C408.032 362.36 411.746 390.246 520.58 400.613C486.509 363.207 488.832 357.281 483.58 340.113C510.691 361.484 524.17 378.252 557.58 382.113C552.662 360.144 548.063 338.306 557.58 324.612C567.096 310.918 759.475 350.802 804.08 419.613C773.74 418.75 774.664 420.637 769.58 423.113C791.923 444.532 805.392 455.996 823.08 480.113C804.648 473.881 794.457 475.761 786.08 480.113C821.194 508.427 841.525 522.57 873.58 559.112C944.653 462.861 929.237 435.969 929.08 374.613C908.905 394.549 899.997 391.486 883.08 392.113C910.376 330.018 899.674 279.917 886.08 221.613C831.601 266.936 813.909 253.005 803.08 249.613C814.202 168.757 891.58 118.112 948.08 114.113C980.304 111.831 716.996 -15.6822 483.58 1.61198C307.744 14.6399 148.872 174.842 146.08 168.613C139.58 154.113 173.801 106.849 178.08 91.6125C182.358 76.3757 51.7984 153.503 45.5798 291.113L1.57976 266.113C-4.40867 380.681 5.62228 444.943 49.0798 559.612Z" fill="#D9D9D9"/>
<path d="M256.5 296.925C73.2239 371.466 49.5 446.926 49.5 535.925C28.5 494.426 17 401.425 24.5 326.925L43.5 344.925L17 293.925L56.5 328.425C71.1205 243.237 74.0474 193.167 141 136.925C137.353 164.987 130.312 177.741 143 213.925C453 -82.5745 775 40.4255 894 104.925C515 9.42546 371 116.425 283.5 185.425C350.615 179.767 382.422 166.615 475.5 202.425C217.5 222.925 177 286.925 150.5 306.425C186.316 298.285 204.49 292.207 256.5 296.925Z" fill="black"/>
<path d="M880.5 240C870.5 266.5 842.5 273.5 814 260.5C841.629 260.355 856.234 256.077 880.5 240Z" fill="black"/>
<path d="M924.411 385.456C915.564 408.011 900.43 411.889 887.911 398.083C901.875 400.222 909.859 397.647 924.411 385.456Z" fill="black"/>
<path fill-rule="evenodd" clip-rule="evenodd" d="M61 604.728C204.127 570.469 400.054 589.564 425.054 625.064H501.054C543.749 571.631 861.637 599.43 859.554 608.564C859.563 608.618 863.941 632.961 859.554 648.564C856.64 659.38 845.228 660.033 842.554 669.564C809.44 787.569 806.999 803.5 778.554 829.064C744.499 855 616.999 858.5 582.554 834.564C531.5 799.088 521.712 746.839 501.054 682.064C481.079 671.582 462.442 663.019 431.554 682.064C388.054 810.064 375.087 812.887 356.5 829.064C329 853 186.217 851.28 158.5 829.064C116 795 105.086 734.894 87.5 670C83.5001 657.931 65.6541 658.072 61 643.728C57.3894 626.734 59.2936 619.125 61 604.728ZM791.352 640.6C758.5 612 591.5 607 557.852 640.6C529.91 668.501 545.5 757.501 594.852 806.6C627.852 835.599 720.999 834 762.852 806.6C797.293 784.051 817.851 661.1 791.352 640.6ZM372.571 637.362C338.923 603.763 171.923 608.763 139.071 637.362C112.572 657.863 133.13 780.813 167.571 803.362C209.423 830.763 302.571 832.362 335.571 803.362C384.923 754.263 400.513 665.263 372.571 637.362Z" fill="#D9D9D9"/>
</svg>
