<svg xmlns="http://www.w3.org/2000/svg" width="951" height="851" fill="none" viewBox="0 0 951 851"><path fill="#d9d9d9" d="M49.08 559.612c41.555-31.011 67.005-47.245 116.5-73.999l-33.5-24.5c15.666-11.769 23.264-18.881 48.5-26.5-19.915-9.904-33.473-11.529-57-15.5 49.208-42.261 41.379-69.792 248-95 36.452 38.247 40.166 66.133 149 76.5-34.071-37.406-31.748-43.332-37-60.5 27.111 21.371 40.59 38.139 74 42-4.918-21.969-9.517-43.807 0-57.501s201.895 26.19 246.5 95.001c-30.34-.863-29.416 1.024-34.5 3.5 22.343 21.419 35.812 32.883 53.5 57-18.432-6.232-28.623-4.352-37 0 35.114 28.314 55.445 42.457 87.5 78.999 71.073-96.251 55.657-123.143 55.5-184.499-20.175 19.936-29.083 16.873-46 17.5 27.296-62.095 16.594-112.196 3-170.5-54.479 45.323-72.171 31.392-83 28 11.122-80.856 88.5-131.501 145-135.5 32.224-2.282-231.084-129.795-464.5-112.501-175.836 13.028-334.708 173.23-337.5 167.001-6.5-14.5 27.721-61.764 32-77 4.278-15.237-126.282 61.89-132.5 199.5l-44-25c-5.989 114.568 4.042 178.83 47.5 293.499"/><path fill="#000" d="M256.5 296.925c-183.276 74.541-207 150.001-207 239-21-41.499-32.5-134.5-25-209l19 18-26.5-51 39.5 34.5c14.62-85.188 17.547-135.258 84.5-191.5-3.647 28.062-10.688 40.816 2 77 310-296.5 632-173.5 751-109-379-95.5-523 11.5-610.5 80.5 67.115-5.658 98.922-18.81 192 17-258 20.5-298.5 84.5-325 104 35.816-8.14 53.99-14.218 106-9.5M880.5 240c-10 26.5-38 33.5-66.5 20.5 27.629-.145 42.234-4.423 66.5-20.5M924.411 385.456c-8.847 22.555-23.981 26.433-36.5 12.627 13.964 2.139 21.948-.436 36.5-12.627"/><path fill="#d9d9d9" fill-rule="evenodd" d="M61 604.728c143.127-34.259 339.054-15.164 364.054 20.336h76c42.695-53.433 360.583-25.634 358.5-16.5.009.054 4.387 24.397 0 40-2.914 10.816-14.326 11.469-17 21-33.114 118.005-35.555 133.936-64 159.5-34.055 25.936-161.555 29.436-196 5.5-51.054-35.476-60.842-87.725-81.5-152.5-19.975-10.482-38.612-19.045-69.5 0-43.5 128-56.467 130.823-75.054 147-27.5 23.936-170.283 22.216-198 0C116 795 105.086 734.894 87.5 670c-4-12.069-21.846-11.928-26.5-26.272-3.61-16.994-1.706-24.603 0-39M791.352 640.6c-32.852-28.6-199.852-33.6-233.5 0-27.942 27.901-12.352 116.901 37 166 33 28.999 126.147 27.4 168 0 34.441-22.549 54.999-145.5 28.5-166m-418.781-3.238c-33.648-33.599-200.648-28.599-233.5 0-26.499 20.501-5.941 143.451 28.5 166 41.852 27.401 135 29 168 0 49.352-49.099 64.942-138.099 37-166" clip-rule="evenodd"/></svg>